<?xml version="1.0" encoding="UTF-8"?>
<svg id="Layer_1" data-name="Layer 1" xmlns="http://www.w3.org/2000/svg" viewBox="0 0 590 400">
  <defs>
    <style>
      .cls-1 {
        fill: #00b4be;
      }
    </style>
  </defs>
  <path class="cls-1" d="M528.8,224.35l-76.26-132.09c-33.59-62.63-132.66-51.05-151.87,16.66-52.88-119.94-218.21-34.64-148.86,75.97-51.11-12.04-102.27,28.82-101.6,81.44-.95,94.29,136.48,114.11,163.06,25.01,32.01,76.13,133.35,78.62,161.24-.43,50.04,114.29,208.02,43.94,154.29-66.56ZM133.66,322.78c-74.19-1.33-74.18-111.59,0-112.9,74.19,1.33,74.18,111.59,0,112.9ZM338.64,229.24c2.93,5.11,5.51,10.43,7.55,15.96,9.37,25.39,7.6,50.58-23.02,69.6-25.97,15.71-62.49,5.93-77.12-20.66,0,0-76.26-132.09-76.26-132.09-7.54-13.06-9.54-28.27-5.64-42.84,12.04-47.99,79.4-56.84,103.42-13.61,0,0,39.99,69.32,40.42,70.12l30.64,53.53ZM323.84,134.03c1.27-74.19,111.63-74.18,112.88,0-1.27,74.19-111.63,74.18-112.88,0ZM511.06,280.69c-7.25,29.47-39.99,48.38-69.14,39.92-14.56-3.9-26.74-13.24-34.28-26.3-3.85-6.59-42.93-74.4-45.46-78.84,41.93,9.96,85.91-16.68,97.71-56.47l45.53,78.86c7.54,13.06,9.54,28.27,5.64,42.84Z"/>
</svg>